<?xml version="1.0" standalone="no"?>
<!DOCTYPE svg PUBLIC "-//W3C//DTD SVG 20010904//EN"
        "http://www.w3.org/TR/2001/REC-SVG-20010904/DTD/svg10.dtd">
<svg version="1.0" xmlns="http://www.w3.org/2000/svg"
     width="464.000000pt" height="112.000000pt" viewBox="0 0 464.000000 112.000000"
     preserveAspectRatio="xMidYMid meet">

    <g transform="translate(0.000000,112.000000) scale(0.100000,-0.100000)"
       fill="#000000" stroke="none">
        <path d="M0 560 l0 -560 2320 0 2320 0 0 560 0 560 -2320 0 -2320 0 0 -560z
m469 264 c54 -69 -19 -164 -79 -104 -41 41 -14 130 39 130 11 0 29 -12 40 -26z
m2151 -259 l0 -275 -25 0 c-21 0 -25 5 -25 31 l0 31 -35 -30 c-38 -34 -87 -47
-143 -38 -70 11 -116 62 -134 147 -24 117 32 235 125 260 52 14 122 -3 160
-39 l27 -26 0 107 0 107 25 0 25 0 0 -275z m170 240 c0 -31 -3 -35 -25 -35
-22 0 -25 4 -25 35 0 31 3 35 25 35 22 0 25 -4 25 -35z m850 0 c0 -31 -3 -35
-25 -35 -22 0 -25 4 -25 35 0 31 3 35 25 35 22 0 25 -4 25 -35z m-3297 -24
c22 -21 26 -79 6 -92 -43 -27 -102 8 -102 61 0 57 51 74 96 31z m1775 -38 c3
-50 4 -52 35 -55 21 -2 33 -9 35 -20 3 -15 -4 -18 -33 -18 l-35 0 2 -162 3
-163 33 0 c27 0 32 -3 30 -20 -4 -25 -64 -33 -93 -11 -18 13 -20 29 -25 183
l-5 168 -28 3 c-37 4 -33 36 6 40 26 3 27 6 27 58 0 52 2 55 23 52 19 -3 22
-10 25 -55z m-1539 -5 c19 -34 6 -77 -29 -95 -36 -18 -64 3 -68 50 -6 69 65
102 97 45z m-317 -58 c30 -23 38 -47 27 -78 -18 -48 -109 -5 -109 51 0 47 40
61 82 27z m1140 10 c103 -29 150 -143 116 -277 -31 -125 -179 -174 -274 -91
l-34 30 0 -106 0 -106 -25 0 -25 0 2 273 3 272 23 3 c19 3 22 -1 22 -31 l0
-35 31 29 c47 44 98 56 161 39z m441 -4 c21 -8 48 -22 59 -33 30 -26 58 -92
58 -135 l0 -38 -150 0 -150 0 0 -32 c0 -37 30 -92 57 -106 65 -35 143 -18 177
38 11 20 25 30 41 30 22 0 23 -2 14 -30 -25 -69 -116 -112 -204 -96 -43 8
-103 59 -121 103 -17 40 -18 132 -2 185 14 48 65 99 115 115 49 15 60 15 106
-1z m1309 -7 c44 -23 53 -56 58 -208 5 -136 6 -146 24 -146 27 0 31 -21 7 -34
-26 -14 -67 1 -76 28 -6 19 -7 19 -41 -4 -70 -48 -158 -46 -209 5 -25 25 -30
38 -30 76 0 39 5 50 31 74 30 26 104 50 158 50 13 0 37 5 55 11 26 9 31 16 31
42 0 48 -34 77 -91 77 -63 0 -93 -15 -112 -56 -17 -35 -57 -48 -57 -19 0 21
25 68 44 84 46 38 155 49 208 20z m353 -9 c0 -19 -7 -26 -32 -31 -74 -15 -87
-45 -93 -209 -5 -131 -6 -135 -27 -138 l-23 -3 0 201 0 201 23 -3 c16 -2 23
-11 25 -31 l3 -28 20 25 c19 24 71 47 94 42 6 -2 10 -13 10 -26z m500 1 c38
-21 71 -81 80 -143 l7 -48 -156 0 c-170 0 -164 3 -146 -62 13 -44 58 -85 104
-93 45 -9 102 17 124 55 11 19 25 30 40 30 29 0 28 -15 -4 -62 -70 -101 -253
-84 -300 29 -83 197 82 390 251 294z m392 3 c26 -16 63 -71 63 -91 0 -7 -11
-13 -25 -13 -16 0 -25 6 -25 15 0 9 -11 27 -25 40 -19 20 -34 25 -72 25 -60 0
-93 -21 -93 -59 0 -38 24 -56 100 -76 112 -29 150 -60 150 -121 0 -88 -124
-140 -230 -98 -42 17 -80 66 -80 103 0 36 36 26 57 -16 24 -46 74 -69 128 -59
67 13 97 73 56 110 -11 10 -54 26 -97 37 -109 27 -134 49 -134 113 0 24 8 51
18 64 38 49 152 64 209 26z m-3909 -34 c67 -55 81 -83 60 -127 -11 -24 -20
-29 -68 -34 -30 -3 -72 -13 -93 -23 -94 -42 -140 38 -80 142 62 110 89 116
181 42z m2297 -150 c0 -195 0 -195 -22 -198 l-23 -3 0 201 0 201 23 -3 c22 -3
22 -3 22 -198z m850 0 c0 -195 0 -195 -22 -198 l-23 -3 0 201 0 201 23 -3 c22
-3 22 -3 22 -198z m-2907 -13 l12 -25 29 29 c35 34 54 36 81 9 29 -29 25 -66
-9 -101 -46 -46 -81 -37 -96 24 l-7 28 -12 -23 c-17 -34 -59 -35 -85 -2 -28
35 -27 59 4 90 24 24 28 25 48 11 12 -8 28 -26 35 -40z m-127 -36 c29 -23 32
-87 5 -107 -23 -17 -60 -1 -75 33 -15 32 -14 44 5 71 19 27 35 28 65 3z m310
-61 c42 -23 13 -102 -42 -115 -56 -13 -79 56 -34 100 26 27 46 31 76 15z
m-154 -22 c11 -13 28 -39 38 -58 10 -19 24 -48 33 -64 13 -25 13 -32 -1 -62
-21 -42 -56 -53 -103 -30 -19 9 -55 16 -79 16 -32 0 -51 7 -71 23 -23 20 -26
28 -20 60 5 29 19 45 64 80 84 65 107 70 139 35z"/>
        <path d="M412 808 c-17 -17 -15 -53 4 -69 14 -11 18 -10 30 6 17 23 17 30 4
56 -12 22 -21 24 -38 7z"/>
        <path d="M2369 635 c-76 -41 -88 -207 -20 -276 87 -86 221 -7 221 130 0 57
-34 127 -71 146 -35 19 -96 19 -130 0z"/>
        <path d="M280 747 c0 -23 16 -37 41 -37 6 0 9 12 7 28 -2 19 -9 28 -25 30 -19
3 -23 -1 -23 -21z"/>
        <path d="M522 728 c-15 -15 -16 -45 -2 -53 16 -10 41 16 38 38 -4 25 -20 31
-36 15z"/>
        <path d="M210 656 c0 -16 26 -46 41 -46 13 0 11 34 -3 48 -16 16 -38 15 -38
-2z"/>
        <path d="M1282 638 c-75 -36 -93 -193 -32 -271 48 -60 146 -57 195 7 53 69 42
204 -20 252 -35 26 -101 32 -143 12z"/>
        <path d="M1716 629 c-28 -22 -56 -68 -56 -94 0 -13 19 -15 125 -15 119 0 125
1 125 20 0 29 -26 76 -52 94 -33 23 -109 21 -142 -5z"/>
        <path d="M3065 479 c-83 -12 -111 -26 -126 -60 -17 -43 0 -75 48 -89 88 -27
173 31 173 116 0 49 5 47 -95 33z"/>
        <path d="M3852 637 c-28 -16 -51 -48 -62 -87 l-9 -30 130 0 c77 0 129 4 129
10 0 30 -36 92 -61 105 -34 18 -96 19 -127 2z"/>
        <path d="M373 648 c-29 -38 -63 -110 -63 -133 0 -35 23 -41 79 -21 25 9 63 16
83 16 40 0 63 24 52 53 -7 19 -110 97 -128 97 -8 0 -18 -6 -23 -12z"/>
        <path d="M656 475 c-8 -21 10 -55 30 -55 11 0 14 9 12 32 -3 36 -31 51 -42 23z"/>
        <path d="M781 452 c-13 -24 -3 -62 15 -62 19 0 46 44 38 64 -8 22 -41 20 -53
-2z"/>
        <path d="M556 415 c-6 -18 9 -55 23 -55 19 0 21 34 3 53 -17 17 -20 17 -26 2z"/>
        <path d="M856 344 c-18 -18 -18 -45 0 -51 16 -5 46 26 42 45 -4 22 -23 25 -42
6z"/>
        <path d="M693 337 c-135 -79 -150 -137 -37 -148 32 -3 71 -11 86 -19 22 -10
30 -11 43 0 19 16 20 64 1 80 -8 6 -20 27 -26 46 -14 42 -39 57 -67 41z"/>
    </g>
</svg>
