<?xml version="1.0" encoding="UTF-8"?>
<!DOCTYPE svg PUBLIC "-//W3C//DTD SVG 1.1//EN" "http://www.w3.org/Graphics/SVG/1.1/DTD/svg11.dtd">
<svg xmlns="http://www.w3.org/2000/svg" version="1.1" width="467px" height="123px"
     style="shape-rendering:geometricPrecision; text-rendering:geometricPrecision; image-rendering:optimizeQuality; fill-rule:evenodd; clip-rule:evenodd">
<g><path style="opacity:1" fill="#fdfdfd" d="M -0.5,-0.5 C 155.167,-0.5 310.833,-0.5 466.5,-0.5C 466.5,40.5 466.5,81.5 466.5,122.5C 310.833,122.5 155.167,122.5 -0.5,122.5C -0.5,81.5 -0.5,40.5 -0.5,-0.5 Z"/></g>
<g><path style="opacity:1" fill="#0b0b0b" d="M 254.5,31.5 C 255.833,31.5 257.167,31.5 258.5,31.5C 258.5,49.1667 258.5,66.8333 258.5,84.5C 257.167,84.5 255.833,84.5 254.5,84.5C 255.187,78.4012 253.854,77.9012 250.5,83C 233.245,89.6935 223.911,83.6935 222.5,65C 224.743,47.5481 234.076,41.8815 250.5,48C 251.667,49.1667 252.833,50.3333 254,51.5C 254.5,44.8417 254.666,38.175 254.5,31.5 Z"/></g>
<g><path style="opacity:1" fill="#404040" d="M 254.5,31.5 C 255.919,30.5489 257.585,30.2155 259.5,30.5C 259.5,48.8333 259.5,67.1667 259.5,85.5C 257.585,85.7845 255.919,85.4511 254.5,84.5C 255.833,84.5 257.167,84.5 258.5,84.5C 258.5,66.8333 258.5,49.1667 258.5,31.5C 257.167,31.5 255.833,31.5 254.5,31.5 Z"/></g>
<g><path style="opacity:1" fill="#141414" d="M 271.5,30.5 C 273.167,30.5 274.833,30.5 276.5,30.5C 276.5,32.8333 276.5,35.1667 276.5,37.5C 274.833,37.5 273.167,37.5 271.5,37.5C 271.5,35.1667 271.5,32.8333 271.5,30.5 Z"/></g>
<g><path style="opacity:1" fill="#141414" d="M 356.5,30.5 C 358.167,30.5 359.833,30.5 361.5,30.5C 361.5,32.8333 361.5,35.1667 361.5,37.5C 359.833,37.5 358.167,37.5 356.5,37.5C 356.5,35.1667 356.5,32.8333 356.5,30.5 Z"/></g>
<g><path style="opacity:1" fill="#1b1b1b" d="M 33.5,37.5 C 33.9609,46.9469 30.2942,48.9469 22.5,43.5C 21.6179,32.815 25.2845,30.815 33.5,37.5 Z"/></g>
<g><path style="opacity:1" fill="#adadad" d="M 204.5,35.5 C 204.5,39.1667 204.5,42.8333 204.5,46.5C 202.5,46.5 200.5,46.5 198.5,46.5C 199.919,45.5489 201.585,45.2155 203.5,45.5C 203.187,41.9581 203.521,38.6248 204.5,35.5 Z"/></g>
<g><path style="opacity:1" fill="#060606" d="M 204.5,35.5 C 205.833,35.5 207.167,35.5 208.5,35.5C 208.5,39.1667 208.5,42.8333 208.5,46.5C 211.167,46.5 213.833,46.5 216.5,46.5C 216.5,47.5 216.5,48.5 216.5,49.5C 213.833,49.5 211.167,49.5 208.5,49.5C 208.334,59.8387 208.5,70.172 209,80.5C 211.135,82.2785 213.635,82.9452 216.5,82.5C 216.67,83.8221 216.337,84.9887 215.5,86C 208.38,88.3653 204.714,85.8653 204.5,78.5C 204.5,68.8333 204.5,59.1667 204.5,49.5C 202.5,49.5 200.5,49.5 198.5,49.5C 198.5,48.5 198.5,47.5 198.5,46.5C 200.5,46.5 202.5,46.5 204.5,46.5C 204.5,42.8333 204.5,39.1667 204.5,35.5 Z"/></g>
<g><path style="opacity:1" fill="#7c7c7c" d="M 208.5,35.5 C 209.479,38.6248 209.813,41.9581 209.5,45.5C 212.059,45.1984 214.393,45.5318 216.5,46.5C 213.833,46.5 211.167,46.5 208.5,46.5C 208.5,42.8333 208.5,39.1667 208.5,35.5 Z"/></g>
<g><path style="opacity:1" fill="#f3f3f3" d="M 25.5,37.5 C 29.9083,37.062 31.5749,39.062 30.5,43.5C 26.5541,43.5123 24.8874,41.5123 25.5,37.5 Z"/></g>
<g><path style="opacity:1" fill="#181818" d="M 51.5,50.5 C 49.8561,50.7135 48.3561,50.3802 47,49.5C 45.908,46.9556 45.2414,44.2889 45,41.5C 41.3032,45.5822 37.9699,45.2488 35,40.5C 34.5065,38.8659 34.3398,37.1992 34.5,35.5C 36.5867,29.1049 40.0867,28.1049 45,32.5C 46.0438,34.7148 46.7105,37.0481 47,39.5C 52.1784,36.0854 55.3451,37.4187 56.5,43.5C 56.5195,47.1542 54.8529,49.4876 51.5,50.5 Z"/></g>
<g><path style="opacity:1" fill="#f0f0f0" d="M 39.5,32.5 C 42.0496,32.8844 43.3829,34.3844 43.5,37C 41.5,43 39.5,43 37.5,37C 37.5186,35.167 38.1852,33.667 39.5,32.5 Z"/></g>
<g><path style="opacity:1" fill="#f2f2f2" d="M 50.5,40.5 C 53.2436,41.0717 54.0769,42.7383 53,45.5C 51.8904,47.0368 50.3904,47.7035 48.5,47.5C 48.1658,44.812 48.8325,42.4786 50.5,40.5 Z"/></g>
<g><path style="opacity:1" fill="#141414" d="M 21.5,44.5 C 26.7325,47.4767 27.7325,51.4767 24.5,56.5C 17.9241,56.4204 15.0908,53.0871 16,46.5C 17.4443,44.8446 19.2776,44.178 21.5,44.5 Z"/></g>
<g><path style="opacity:1" fill="#151515" d="M 48.5,52.5 C 54.7998,56.5134 55.1331,61.0134 49.5,66C 43.9932,65.7065 38.9932,67.0398 34.5,70C 26.0191,69.9098 23.3524,65.7432 26.5,57.5C 28.5279,53.297 31.1945,49.4636 34.5,46C 36.1667,45.3333 37.8333,45.3333 39.5,46C 42.9376,47.6107 45.9376,49.7774 48.5,52.5 Z"/></g>
<g><path style="opacity:1" fill="#0a0a0a" d="M 126.5,45.5 C 144.254,43.7539 152.087,51.7539 150,69.5C 147.984,82.4283 140.484,87.9283 127.5,86C 124.098,84.6001 121.264,82.4335 119,79.5C 118.5,86.4921 118.334,93.4921 118.5,100.5C 117.167,100.5 115.833,100.5 114.5,100.5C 114.5,82.5 114.5,64.5 114.5,46.5C 115.833,46.5 117.167,46.5 118.5,46.5C 118.338,48.5273 118.505,50.5273 119,52.5C 121.015,49.5883 123.515,47.255 126.5,45.5 Z"/></g>
<g><path style="opacity:1" fill="#0d0d0d" d="M 169.5,45.5 C 185.64,43.3105 193.64,50.3105 193.5,66.5C 183.5,66.5 173.5,66.5 163.5,66.5C 164.311,80.574 171.311,85.074 184.5,80C 186.451,78.2658 187.451,76.0991 187.5,73.5C 189.167,73.5 190.833,73.5 192.5,73.5C 191.431,80.4038 187.431,84.5704 180.5,86C 169.779,87.8911 162.613,83.7244 159,73.5C 156.115,61.6292 159.615,52.2958 169.5,45.5 Z"/></g>
<g><path style="opacity:1" fill="#121212" d="M 292.5,57.5 C 291.167,57.5 289.833,57.5 288.5,57.5C 288.5,56.5 288.5,55.5 288.5,54.5C 289.585,50.2462 292.252,47.4129 296.5,46C 302.755,44.8732 308.755,45.5399 314.5,48C 316.041,49.5793 317.208,51.4127 318,53.5C 318.333,62.8333 318.667,72.1667 319,81.5C 320.011,82.3366 321.178,82.67 322.5,82.5C 322.5,83.5 322.5,84.5 322.5,85.5C 320.143,85.6633 317.81,85.4966 315.5,85C 314.8,80.5403 313.133,79.8737 310.5,83C 303.939,86.992 297.272,87.3253 290.5,84C 285.006,79.5349 284.172,74.3682 288,68.5C 289.952,66.1064 292.452,64.6064 295.5,64C 301.205,63.1447 306.871,62.1447 312.5,61C 315.139,52.7838 312.139,48.9505 303.5,49.5C 297.051,48.5428 293.385,51.2095 292.5,57.5 Z"/></g>
<g><path style="opacity:1" fill="#090909" d="M 343.5,45.5 C 344.833,45.5 346.167,45.5 347.5,45.5C 347.5,46.8333 347.5,48.1667 347.5,49.5C 342.266,49.8645 338.433,52.5312 336,57.5C 334.769,66.7922 334.269,76.1255 334.5,85.5C 333.167,85.5 331.833,85.5 330.5,85.5C 330.5,72.5 330.5,59.5 330.5,46.5C 331.833,46.5 333.167,46.5 334.5,46.5C 334.337,48.8568 334.503,51.1902 335,53.5C 335.717,52.9558 336.217,52.2891 336.5,51.5C 337.599,48.0679 339.933,46.0679 343.5,45.5 Z"/></g>
<g><path style="opacity:1" fill="#5c5c5c" d="M 343.5,45.5 C 344.919,44.5489 346.585,44.2155 348.5,44.5C 348.784,46.4147 348.451,48.0813 347.5,49.5C 347.5,48.1667 347.5,46.8333 347.5,45.5C 346.167,45.5 344.833,45.5 343.5,45.5 Z"/></g>
<g><path style="opacity:1" fill="#101010" d="M 406.5,66.5 C 396.167,66.5 385.833,66.5 375.5,66.5C 375.216,68.4147 375.549,70.0813 376.5,71.5C 379.801,81.9946 386.468,84.8279 396.5,80C 398.414,78.5867 399.747,76.7534 400.5,74.5C 402.167,73.1667 403.833,73.1667 405.5,74.5C 401.397,84.3856 394.064,88.2189 383.5,86C 376.483,83.6479 372.316,78.8146 371,71.5C 369.037,60.2669 372.87,51.7669 382.5,46C 398.595,43.2571 406.595,50.0904 406.5,66.5 Z"/></g>
<g><path style="opacity:1" fill="#111111" d="M 421.5,45.5 C 426.93,45.161 432.264,45.661 437.5,47C 440.934,49.7033 442.934,53.2033 443.5,57.5C 441.833,57.5 440.167,57.5 438.5,57.5C 438.456,53.9103 436.789,51.4103 433.5,50C 429.833,49.3333 426.167,49.3333 422.5,50C 418.5,53.6667 418.5,57.3333 422.5,61C 427.879,62.4592 433.212,64.1258 438.5,66C 443.732,68.6326 445.565,72.7992 444,78.5C 441.445,82.8667 437.612,85.3667 432.5,86C 422.108,87.8136 415.775,83.647 413.5,73.5C 415.167,73.5 416.833,73.5 418.5,73.5C 419.422,79.7484 423.088,82.7484 429.5,82.5C 434.961,82.6227 438.294,80.1227 439.5,75C 439.357,72.849 438.357,71.1824 436.5,70C 431.657,68.1359 426.657,66.8025 421.5,66C 415.418,62.9981 413.251,58.1648 415,51.5C 417.063,49.2659 419.229,47.2659 421.5,45.5 Z"/></g>
<g><path style="opacity:1" fill="#d9d9d9" d="M 34.5,35.5 C 34.3398,37.1992 34.5065,38.8659 35,40.5C 37.9699,45.2488 41.3032,45.5822 45,41.5C 45.2414,44.2889 45.908,46.9556 47,49.5C 48.3561,50.3802 49.8561,50.7135 51.5,50.5C 50.5,51.1667 49.5,51.8333 48.5,52.5C 45.9376,49.7774 42.9376,47.6107 39.5,46C 37.8333,45.3333 36.1667,45.3333 34.5,46C 31.1945,49.4636 28.5279,53.297 26.5,57.5C 26.1583,56.6618 25.4916,56.3284 24.5,56.5C 27.7325,51.4767 26.7325,47.4767 21.5,44.5C 22.1667,44.5 22.5,44.1667 22.5,43.5C 30.2942,48.9469 33.9609,46.9469 33.5,37.5C 33.3284,36.5084 33.6618,35.8417 34.5,35.5 Z"/></g>
<g><path style="opacity:1" fill="#020202" d="M 271.5,46.5 C 272.833,46.5 274.167,46.5 275.5,46.5C 275.5,59.5 275.5,72.5 275.5,85.5C 274.167,85.5 272.833,85.5 271.5,85.5C 271.5,72.5 271.5,59.5 271.5,46.5 Z"/></g>
<g><path style="opacity:1" fill="#757575" d="M 334.5,46.5 C 335.167,48.1667 335.833,49.8333 336.5,51.5C 336.217,52.2891 335.717,52.9558 335,53.5C 334.503,51.1902 334.337,48.8568 334.5,46.5 Z"/></g>
<g><path style="opacity:1" fill="#020202" d="M 356.5,46.5 C 357.833,46.5 359.167,46.5 360.5,46.5C 360.5,59.5 360.5,72.5 360.5,85.5C 359.167,85.5 357.833,85.5 356.5,85.5C 356.5,72.5 356.5,59.5 356.5,46.5 Z"/></g>
<g><path style="opacity:1" fill="#ebebeb" d="M 18.5,47.5 C 22.713,47.6988 24.0464,49.6988 22.5,53.5C 19.6681,52.5036 18.3347,50.5036 18.5,47.5 Z"/></g>
<g><path style="opacity:1" fill="#f7f7f7" d="M 35.5,48.5 C 36.8734,48.3433 38.2068,48.51 39.5,49C 43,51.8333 46.5,54.6667 50,57.5C 50.6667,58.8333 50.6667,60.1667 50,61.5C 45.2033,62.8622 40.37,64.3622 35.5,66C 29.3333,67.8333 27.1667,65.6667 29,59.5C 31.0815,55.7184 33.2482,52.0518 35.5,48.5 Z"/></g>
<g><path style="opacity:1" fill="#f9f9f9" d="M 126.5,49.5 C 135.844,47.2514 142.011,50.5848 145,59.5C 146.95,67.4553 145.117,74.2887 139.5,80C 129.172,84.5882 122.339,81.4215 119,70.5C 117.273,61.84 119.773,54.84 126.5,49.5 Z"/></g>
<g><path style="opacity:1" fill="#f1f1f1" d="M 171.5,49.5 C 182.688,47.6998 188.355,52.3664 188.5,63.5C 180.167,63.5 171.833,63.5 163.5,63.5C 163.596,57.302 166.263,52.6354 171.5,49.5 Z"/></g>
<g><path style="opacity:1" fill="#f9f9f9" d="M 236.5,49.5 C 245.157,48.0741 250.99,51.4074 254,59.5C 256.203,68.0782 254.037,75.2448 247.5,81C 237.931,84.1324 231.431,80.9657 228,71.5C 225.876,62.0084 228.71,54.6751 236.5,49.5 Z"/></g>
<g><path style="opacity:1" fill="#fafafa" d="M 400.5,57.5 C 400.5,59.1667 400.5,60.8333 400.5,62.5C 392.167,62.5 383.833,62.5 375.5,62.5C 378.544,49.3082 386.044,45.9749 398,52.5C 399.094,54.0779 399.928,55.7446 400.5,57.5 Z"/></g>
<g><path style="opacity:1" fill="#bdbdbd" d="M 198.5,49.5 C 200.5,49.5 202.5,49.5 204.5,49.5C 204.5,59.1667 204.5,68.8333 204.5,78.5C 203.506,69.3483 203.173,60.015 203.5,50.5C 201.585,50.7845 199.919,50.4511 198.5,49.5 Z"/></g>
<g><path style="opacity:1" fill="#7e7e7e" d="M 288.5,54.5 C 288.5,55.5 288.5,56.5 288.5,57.5C 289.833,57.5 291.167,57.5 292.5,57.5C 291.081,58.4511 289.415,58.7845 287.5,58.5C 287.232,56.901 287.566,55.5676 288.5,54.5 Z"/></g>
<g><path style="opacity:1" fill="#161616" d="M 70.5,67.5 C 70.5,68.5 70.5,69.5 70.5,70.5C 70.1778,74.9757 67.8444,76.4757 63.5,75C 59.3561,72.2796 58.5228,68.7796 61,64.5C 65.4817,61.297 68.6484,62.297 70.5,67.5 Z"/></g>
<g><path style="opacity:1" fill="#848484" d="M 400.5,57.5 C 401.461,59.2646 401.795,61.2646 401.5,63.5C 392.651,63.8264 383.984,63.493 375.5,62.5C 383.833,62.5 392.167,62.5 400.5,62.5C 400.5,60.8333 400.5,59.1667 400.5,57.5 Z"/></g>
<g><path style="opacity:1" fill="#e7e7e7" d="M 63.5,65.5 C 64.8221,65.33 65.9887,65.6634 67,66.5C 67.4955,68.4727 67.6621,70.4727 67.5,72.5C 62.8126,72.0838 61.4792,69.7505 63.5,65.5 Z"/></g>
<g><path style="opacity:1" fill="#f5f5f5" d="M 308.5,65.5 C 310.167,65.5 311.833,65.5 313.5,65.5C 314.095,78.0691 308.095,83.5691 295.5,82C 290.566,79.3351 289.399,75.5018 292,70.5C 293.935,68.8978 296.101,67.7311 298.5,67C 302.025,66.8213 305.359,66.3213 308.5,65.5 Z"/></g>
<g><path style="opacity:1" fill="#bebebe" d="M 406.5,66.5 C 396.681,67.494 386.681,67.8274 376.5,67.5C 376.5,68.8333 376.5,70.1667 376.5,71.5C 375.549,70.0813 375.216,68.4147 375.5,66.5C 385.833,66.5 396.167,66.5 406.5,66.5 Z"/></g>
<g><path style="opacity:1" fill="#191919" d="M 52.5,68.5 C 55.5608,68.4443 57.7275,69.7776 59,72.5C 59.7772,75.4294 59.6105,78.2628 58.5,81C 52,81.8333 49.1667,79 50,72.5C 50.6622,71.0161 51.4955,69.6828 52.5,68.5 Z"/></g>
<g><path style="opacity:1" fill="#656565" d="M 70.5,67.5 C 71.1667,68.1667 71.8333,68.8333 72.5,69.5C 72.5,71.1667 72.5,72.8333 72.5,74.5C 71.8333,73.1667 71.1667,71.8333 70.5,70.5C 70.5,69.5 70.5,68.5 70.5,67.5 Z"/></g>
<g><path style="opacity:1" fill="#e1e1e1" d="M 53.5,72.5 C 56.6329,72.7611 57.7995,74.4277 57,77.5C 54.6936,78.5815 53.1936,77.7482 52.5,75C 52.7432,74.0979 53.0766,73.2646 53.5,72.5 Z"/></g>
<g><path style="opacity:1" fill="#171717" d="M 72.5,74.5 C 72.5,72.8333 72.5,71.1667 72.5,69.5C 73.9284,65.1183 76.9284,63.285 81.5,64C 85.5,68 85.5,72 81.5,76C 91.0111,75.1758 93.0111,78.8425 87.5,87C 82.3985,89.9895 79.3985,88.6561 78.5,83C 78.6148,81.1049 79.2815,79.4382 80.5,78C 78.5568,78.3052 76.5568,78.3052 74.5,78C 73.1772,77.1841 72.5106,76.0174 72.5,74.5 Z"/></g>
<g><path style="opacity:1" fill="#e1e1e1" d="M 76.5,67.5 C 79.2605,66.9147 80.9272,67.9147 81.5,70.5C 80.5949,74.2844 78.4283,75.6177 75,74.5C 74.1668,71.829 74.6668,69.4957 76.5,67.5 Z"/></g>
<g><path style="opacity:1" fill="#141414" d="M 67.5,76.5 C 70.7845,76.2693 73.2845,77.6026 75,80.5C 75.92,83.9382 77.5867,86.9382 80,89.5C 81.4437,94.2558 80.2771,98.0891 76.5,101C 70.4731,99.1679 64.1397,98.1679 57.5,98C 51.8912,94.8559 51.0579,90.6892 55,85.5C 59.3221,82.601 63.4887,79.601 67.5,76.5 Z"/></g>
<g><path style="opacity:1" fill="#dfdfdf" d="M 83.5,78.5 C 84.8333,78.5 86.1667,78.5 87.5,78.5C 87.9803,83.0168 85.9803,85.3502 81.5,85.5C 81.1658,82.812 81.8325,80.4786 83.5,78.5 Z"/></g>
<g><path style="opacity:1" fill="#f5f5f5" d="M 67.5,79.5 C 69.3904,79.2965 70.8904,79.9632 72,81.5C 73.4131,84.6612 75.0797,87.6612 77,90.5C 77.9439,93.3471 77.4439,95.8471 75.5,98C 69.7779,96.1067 63.7779,95.1067 57.5,95C 55.0155,92.7162 54.8489,90.2162 57,87.5C 60.6584,84.9343 64.1584,82.2676 67.5,79.5 Z"/></g>
</svg>
