<?xml version="1.0" standalone="no"?>
<!DOCTYPE svg PUBLIC "-//W3C//DTD SVG 20010904//EN"
 "http://www.w3.org/TR/2001/REC-SVG-20010904/DTD/svg10.dtd">
<svg version="1.0" xmlns="http://www.w3.org/2000/svg"
 width="457.000000pt" height="111.000000pt" viewBox="0 0 457.000000 111.000000"
 preserveAspectRatio="xMidYMid meet">

<g transform="translate(0.000000,111.000000) scale(0.100000,-0.100000)"
fill="#000000" stroke="none">
<path d="M0 555 l0 -555 2285 0 2285 0 0 555 0 555 -2285 0 -2285 0 0 -555z
m419 289 c54 -69 -19 -164 -79 -104 -41 41 -14 130 39 130 11 0 29 -12 40 -26z
m2261 -265 l0 -260 -22 3 c-15 2 -24 11 -26 26 l-3 23 -30 -25 c-77 -66 -206
-34 -245 61 -8 18 -14 63 -14 100 0 80 25 134 80 171 29 20 44 23 93 20 38 -3
67 -11 87 -26 l30 -23 0 89 c0 94 3 102 32 102 17 0 18 -15 18 -261z m160 226
c0 -31 -3 -35 -25 -35 -21 0 -25 5 -25 28 0 33 7 42 32 42 14 0 18 -8 18 -35z
m798 -2 c3 -30 1 -33 -22 -33 -23 0 -26 4 -26 36 0 31 3 35 23 32 17 -2 23
-11 25 -35z m-3345 -2 c22 -21 26 -79 6 -92 -43 -27 -102 8 -102 61 0 57 51
74 96 31z m1715 -59 l3 -52 35 0 c28 0 35 -4 32 -17 -2 -12 -14 -19 -36 -21
l-33 -3 3 -147 3 -147 33 0 c24 0 32 -4 32 -17 0 -21 -39 -33 -75 -24 -38 10
-45 42 -45 196 0 136 0 139 -22 142 -34 5 -37 38 -4 38 24 0 26 3 26 48 0 53
6 64 30 60 11 -2 16 -18 18 -56z m-1479 16 c19 -34 6 -77 -29 -95 -36 -18 -64
3 -68 50 -6 69 65 102 97 45z m-317 -58 c30 -23 38 -47 27 -78 -18 -48 -109
-5 -109 51 0 47 40 61 82 27z m226 -40 c67 -55 81 -83 60 -127 -11 -24 -20
-29 -68 -34 -30 -3 -72 -13 -93 -23 -94 -42 -140 38 -80 142 62 110 89 116
181 42z m926 26 c105 -44 127 -237 37 -328 -59 -58 -149 -64 -210 -12 l-30 25
-3 -98 c-3 -90 -5 -98 -23 -98 -19 0 -20 8 -23 258 l-2 257 25 0 c20 0 25 -5
25 -27 l0 -26 23 21 c45 42 119 54 181 28z m437 -22 c40 -38 49 -55 58 -115
l8 -49 -145 0 -145 0 6 -42 c15 -111 160 -146 218 -52 20 32 59 47 59 23 0
-28 -46 -83 -84 -100 -52 -24 -100 -24 -152 0 -54 24 -84 75 -91 150 -6 68 8
118 45 163 36 43 77 59 140 55 41 -3 59 -10 83 -33z m1379 21 c47 -24 54 -48
58 -198 4 -130 6 -138 23 -134 13 4 19 0 19 -13 0 -36 -77 -28 -87 9 -5 18 -6
18 -40 -5 -96 -65 -223 -23 -223 73 0 19 5 43 11 55 15 27 81 55 154 63 79 10
95 19 95 55 0 82 -158 98 -191 19 -12 -31 -49 -41 -49 -13 0 34 35 76 80 96
28 12 121 8 150 -7z m338 -7 c-2 -16 -12 -24 -36 -29 -71 -14 -92 -67 -92
-228 0 -94 -1 -101 -20 -101 -19 0 -20 7 -20 185 0 178 1 185 20 185 15 0 20
-7 20 -29 l0 -29 34 34 c24 24 43 34 66 34 27 0 31 -3 28 -22z m463 -1 c40
-26 79 -98 79 -144 l0 -32 -142 -3 -143 -3 3 -29 c8 -76 64 -122 135 -113 40
6 82 37 93 69 5 18 39 25 48 9 8 -12 -33 -70 -67 -95 -40 -30 -144 -30 -183 0
-53 39 -68 70 -72 145 -5 75 14 143 46 172 57 52 146 62 203 24z m389 -12 c16
-17 32 -42 35 -57 6 -24 4 -28 -14 -28 -13 0 -25 9 -31 24 -13 35 -49 56 -97
56 -30 0 -49 -6 -63 -20 -43 -43 -10 -89 83 -110 66 -16 102 -34 121 -62 65
-92 -77 -195 -198 -144 -40 17 -76 60 -76 92 0 36 35 31 50 -6 22 -52 100 -77
153 -49 29 16 37 28 37 60 0 36 -13 44 -105 69 -90 24 -126 51 -127 96 -2 81
43 117 140 112 54 -3 67 -8 92 -33z m-1530 -161 l0 -185 -22 3 c-23 3 -23 5
-26 186 l-2 182 25 0 25 0 0 -186z m798 4 c-3 -181 -3 -183 -25 -186 l-23 -3
0 185 0 186 25 0 25 0 -2 -182z m-2960 -11 l12 -25 29 29 c35 34 54 36 81 9
29 -29 25 -66 -9 -101 -46 -46 -81 -37 -96 24 l-7 28 -12 -23 c-17 -34 -59
-35 -85 -2 -28 35 -27 59 4 90 24 24 28 25 48 11 12 -8 28 -26 35 -40z m-127
-36 c29 -23 32 -87 5 -107 -23 -17 -60 -1 -75 33 -15 32 -14 44 5 71 19 27 35
28 65 3z m310 -61 c42 -23 13 -102 -42 -115 -56 -13 -79 56 -34 100 26 27 46
31 76 15z m-154 -22 c11 -13 28 -39 38 -58 10 -19 24 -48 33 -64 13 -25 13
-32 -1 -62 -21 -42 -56 -53 -103 -30 -19 9 -55 16 -79 16 -32 0 -51 7 -71 23
-23 20 -26 28 -20 60 5 29 19 45 64 80 84 65 107 70 139 35z"/>
<path d="M362 828 c-17 -17 -15 -53 4 -69 14 -11 18 -10 30 6 17 23 17 30 4
56 -12 22 -21 24 -38 7z"/>
<path d="M2448 644 c-41 -21 -61 -69 -62 -140 0 -76 28 -127 80 -144 65 -22
120 3 153 67 16 31 14 129 -4 163 -33 65 -105 88 -167 54z"/>
<path d="M230 767 c0 -23 16 -37 41 -37 6 0 9 12 7 28 -2 19 -9 28 -25 30 -19
3 -23 -1 -23 -21z"/>
<path d="M472 748 c-15 -15 -16 -45 -2 -53 16 -10 41 16 38 38 -4 25 -20 31
-36 15z"/>
<path d="M160 676 c0 -16 26 -46 41 -46 13 0 11 34 -3 48 -16 16 -38 15 -38
-2z"/>
<path d="M323 668 c-29 -38 -63 -110 -63 -133 0 -35 23 -41 79 -21 25 9 63 16
83 16 40 0 63 24 52 53 -7 19 -110 97 -128 97 -8 0 -18 -6 -23 -12z"/>
<path d="M1215 638 c-55 -43 -71 -137 -36 -215 32 -69 104 -92 167 -54 81 50
87 208 9 269 -37 30 -103 30 -140 0z"/>
<path d="M1639 643 c-15 -9 -34 -32 -43 -50 -30 -62 -29 -63 105 -63 l121 0
-8 32 c-3 18 -13 42 -20 54 -29 44 -107 57 -155 27z"/>
<path d="M3095 495 c-89 -15 -104 -22 -111 -50 -17 -66 24 -102 102 -90 66 9
95 40 102 103 5 59 12 56 -93 37z"/>
<path d="M3838 644 c-30 -16 -58 -61 -58 -94 0 -19 6 -20 115 -20 l115 0 0 31
c0 47 -56 99 -106 99 -22 -1 -51 -7 -66 -16z"/>
<path d="M606 495 c-8 -21 10 -55 30 -55 11 0 14 9 12 32 -3 36 -31 51 -42 23z"/>
<path d="M731 472 c-13 -24 -3 -62 15 -62 19 0 46 44 38 64 -8 22 -41 20 -53
-2z"/>
<path d="M506 435 c-6 -18 9 -55 23 -55 19 0 21 34 3 53 -17 17 -20 17 -26 2z"/>
<path d="M806 364 c-18 -18 -18 -45 0 -51 16 -5 46 26 42 45 -4 22 -23 25 -42
6z"/>
<path d="M643 357 c-135 -79 -150 -137 -37 -148 32 -3 71 -11 86 -19 22 -10
30 -11 43 0 19 16 20 64 1 80 -8 6 -20 27 -26 46 -14 42 -39 57 -67 41z"/>
</g>
</svg>
